<?xml version="1.0" encoding="UTF-8" standalone="no"?>
<!-- Created with Inkscape (http://www.inkscape.org/) -->

<svg
   xmlns:dc="http://purl.org/dc/elements/1.1/"
   xmlns:cc="http://creativecommons.org/ns#"
   xmlns:rdf="http://www.w3.org/1999/02/22-rdf-syntax-ns#"
   xmlns:svg="http://www.w3.org/2000/svg"
   xmlns="http://www.w3.org/2000/svg"
   xmlns:sodipodi="http://sodipodi.sourceforge.net/DTD/sodipodi-0.dtd"
   xmlns:inkscape="http://www.inkscape.org/namespaces/inkscape"
   width="64px"
   height="64px"
   id="svg2985"
   version="1.1"
   inkscape:version="0.48.1 r9760"
   sodipodi:docname="New document 2">
  <defs
     id="defs2987">
    <marker
       inkscape:stockid="Arrow2Lend"
       orient="auto"
       refY="0.0"
       refX="0.0"
       id="Arrow2Lend"
       style="overflow:visible;">
      <path
         id="path3832"
         style="font-size:12.0;fill-rule:evenodd;stroke-width:0.62500000;stroke-linejoin:round;"
         d="M 8.7185878,4.0337352 L -2.2072895,0.016013256 L 8.7185884,-4.0017078 C 6.9730900,-1.6296469 6.9831476,1.6157441 8.7185878,4.0337352 z "
         transform="scale(1.1) rotate(180) translate(1,0)" />
    </marker>
    <marker
       inkscape:stockid="Arrow1Lend"
       orient="auto"
       refY="0.0"
       refX="0.0"
       id="Arrow1Lend"
       style="overflow:visible;">
      <path
         id="path3814"
         d="M 0.0,0.0 L 5.0,-5.0 L -12.5,0.0 L 5.0,5.0 L 0.0,0.0 z "
         style="fill-rule:evenodd;stroke:#000000;stroke-width:1.0pt;marker-start:none;"
         transform="scale(0.8) rotate(180) translate(12.5,0)" />
    </marker>
  </defs>
  <sodipodi:namedview
     id="base"
     pagecolor="#ffffff"
     bordercolor="#666666"
     borderopacity="1.0"
     inkscape:pageopacity="0.0"
     inkscape:pageshadow="2"
     inkscape:zoom="5.5"
     inkscape:cx="39.530686"
     inkscape:cy="31.909091"
     inkscape:current-layer="layer1"
     showgrid="true"
     inkscape:document-units="px"
     inkscape:grid-bbox="true"
     inkscape:window-width="1140"
     inkscape:window-height="751"
     inkscape:window-x="238"
     inkscape:window-y="67"
     inkscape:window-maximized="0" />
  <metadata
     id="metadata2990">
    <rdf:RDF>
      <cc:Work
         rdf:about="">
        <dc:format>image/svg+xml</dc:format>
        <dc:type
           rdf:resource="http://purl.org/dc/dcmitype/StillImage" />
        <dc:title></dc:title>
      </cc:Work>
    </rdf:RDF>
  </metadata>
  <g
     id="layer1"
     inkscape:label="Layer 1"
     inkscape:groupmode="layer">
    <path
       style="fill:none;stroke:#000000;stroke-width:1px;stroke-linecap:butt;stroke-linejoin:miter;stroke-opacity:1"
       d="M 11.636364,52.181818 32,35.636364 l 0,0"
       id="path4808"
       inkscape:connector-curvature="0" />
    <path
       style="fill:none;stroke:#000000;stroke-width:1;stroke-linecap:butt;stroke-linejoin:miter;stroke-miterlimit:4;stroke-opacity:1;stroke-dasharray:none;marker-end:none"
       d="m 31.818183,7.818182 -1e-6,15.272727 0,12.909091 20.363636,16.545455 0,0 0,0 0,0"
       id="path4438"
       inkscape:connector-curvature="0"
       sodipodi:nodetypes="ccc" />
    <path
       sodipodi:type="arc"
       style="fill:#00bf00;stroke:#008c00;stroke-width:2;stroke-linecap:round;stroke-linejoin:round;stroke-miterlimit:4;stroke-opacity:1;stroke-dasharray:none;stroke-dashoffset:0"
       id="path2993"
       sodipodi:cx="32.727272"
       sodipodi:cy="14.363636"
       sodipodi:rx="3.9999998"
       sodipodi:ry="4.1818175"
       d="m 36.727272,14.363636 a 3.9999998,4.1818175 0 1 1 -8,0 3.9999998,4.1818175 0 1 1 8,0 z"
       transform="matrix(1.4952681,0,0,1.4519956,-17.026957,-12.674119)" />
    <path
       sodipodi:type="arc"
       style="fill:#bf0303;stroke:#e20800;stroke-width:2;stroke-linecap:round;stroke-linejoin:round;stroke-miterlimit:4;stroke-opacity:1;stroke-dasharray:none;stroke-dashoffset:0"
       id="path2993-8"
       sodipodi:cx="32.727272"
       sodipodi:cy="14.363636"
       sodipodi:rx="3.9999998"
       sodipodi:ry="4.1818175"
       d="m 36.727272,14.363636 a 3.9999998,4.1818175 0 1 1 -8,0 3.9999998,4.1818175 0 1 1 8,0 z"
       transform="matrix(1.4952681,0,0,1.4519956,3.245772,31.507698)" />
    <path
       sodipodi:type="arc"
       style="fill:#ffbf00;stroke:#ffaa00;stroke-width:2;stroke-linecap:round;stroke-linejoin:round;stroke-miterlimit:4;stroke-opacity:1;stroke-dasharray:none;stroke-dashoffset:0"
       id="path2993-7"
       sodipodi:cx="32.727272"
       sodipodi:cy="14.363636"
       sodipodi:rx="3.9999998"
       sodipodi:ry="4.1818175"
       d="m 36.727272,14.363636 a 3.9999998,4.1818175 0 1 1 -8,0 3.9999998,4.1818175 0 1 1 8,0 z"
       transform="matrix(1.4952681,0,0,1.4519956,-36.936046,31.507698)" />
    <path
       sodipodi:type="arc"
       style="fill:#00bf00;stroke:#008c00;stroke-width:2;stroke-linecap:round;stroke-linejoin:round;stroke-miterlimit:4;stroke-opacity:1;stroke-dasharray:none;stroke-dashoffset:0"
       id="path2993-5"
       sodipodi:cx="32.727272"
       sodipodi:cy="14.363636"
       sodipodi:rx="3.9999998"
       sodipodi:ry="4.1818175"
       d="m 36.727272,14.363636 a 3.9999998,4.1818175 0 1 1 -8,0 3.9999998,4.1818175 0 1 1 8,0 z"
       transform="matrix(1.4952681,0,0,1.4519956,-16.754228,14.780427)" />
  </g>
</svg>
