/* XPM */
static char *lookup[] = {
/* columns rows colors chars-per-pixel */
"48 48 175 2",
"   c #000000",
".  c #000101",
"X  c #010101",
"o  c #020202",
"O  c #030303",
"+  c #050505",
"@  c #080808",
"#  c #0A0A0A",
"$  c #0B0B0B",
"%  c #0B0C0C",
"&  c #0A0D0D",
"*  c #0C0C0C",
"=  c #0D0D0D",
"-  c #0E0E0E",
";  c #0F0F0F",
":  c #150000",
">  c #160000",
",  c #0F1111",
"<  c #0F1414",
"1  c #101111",
"2  c #121212",
"3  c #131313",
"4  c #161616",
"5  c #131818",
"6  c #181919",
"7  c #191919",
"8  c #1B1B1B",
"9  c #1C1C1C",
"0  c #1D1D1D",
"q  c #2A0000",
"w  c #1E2020",
"e  c #202020",
"r  c #222222",
"t  c #222525",
"y  c #242424",
"u  c #272A2A",
"i  c #2E3232",
"p  c #303030",
"a  c #323232",
"s  c #383939",
"d  c #3A3A3A",
"f  c #3B3B3B",
"g  c #3D3B3B",
"h  c #3F3F3F",
"j  c #440000",
"k  c #560505",
"l  c #3B4141",
"z  c #3F4343",
"x  c #3F4646",
"c  c #404040",
"v  c #414141",
"b  c #424242",
"n  c #404646",
"m  c #444444",
"M  c #454545",
"N  c #464646",
"B  c #4E4E4E",
"V  c #5A5A5A",
"C  c #5B5B5B",
"Z  c #5D5D5D",
"A  c #675D5D",
"S  c #6A5D5D",
"D  c #616161",
"F  c #626262",
"G  c #656565",
"H  c #676767",
"J  c #686868",
"K  c #6A6A6A",
"L  c #717171",
"P  c #757474",
"I  c #757575",
"U  c #7B7B7B",
"Y  c #7E7E7E",
"T  c #7F7E7E",
"R  c #7F7F7F",
"E  c #800101",
"W  c #8E0C0C",
"Q  c #BB0000",
"!  c #BF1A1A",
"~  c #C00000",
"^  c #CD0000",
"/  c #DD0101",
"(  c #FF0000",
")  c #FF0B0B",
"_  c #EC1A1A",
"`  c #EE1B1B",
"'  c #FF1616",
"]  c #C62828",
"[  c #ED2323",
"{  c #FF2222",
"}  c #EA3E3E",
"|  c #807F7F",
" . c #9A7474",
".. c #937979",
"X. c #FF4141",
"o. c #FF4747",
"O. c #F04B4B",
"+. c #FB4B4B",
"@. c #EF5656",
"#. c #E15F5F",
"$. c #C07F7F",
"%. c #D57878",
"&. c #FF6D6D",
"*. c #FF7C7C",
"=. c #FF7F7F",
"-. c #7F8080",
";. c #808080",
":. c #8A8A8A",
">. c #8B8B8B",
",. c #8E8E8E",
"<. c #959595",
"1. c #969696",
"2. c #979797",
"3. c #BB8383",
"4. c #B19999",
"5. c #A4A4A4",
"6. c #A9A9A9",
"7. c #AAAAAA",
"8. c #ADADAD",
"9. c #BAA4A4",
"0. c #BCA5A5",
"q. c #B7B7B7",
"w. c #BBB2B2",
"e. c #BABABA",
"r. c #BBBABA",
"t. c #BBBBBB",
"y. c #BBBDBD",
"u. c #BDBDBD",
"i. c #BEBEBE",
"p. c #BFBFBF",
"a. c #D28585",
"s. c #F68282",
"d. c #E29E9E",
"f. c #FF9E9E",
"g. c #C0A5A5",
"h. c #E9A3A3",
"j. c #EBA5A5",
"k. c #F1A5A5",
"l. c #FFBBBB",
"z. c #FFBFBF",
"x. c #C0C0C0",
"c. c #C1C1C1",
"v. c #CDCDCD",
"b. c #CFCFCF",
"n. c #D0D0D0",
"m. c #D8D8D8",
"M. c #DADADA",
"N. c #DBDBDB",
"B. c #DCDCDC",
"V. c #DDDDDD",
"C. c #E9CACA",
"Z. c #FFC1C1",
"A. c #FFCFCF",
"S. c #E0E0E0",
"D. c #E3E3E3",
"F. c #E9E9E9",
"G. c #EBEBEB",
"H. c #E9EDED",
"J. c #ECECEC",
"K. c #EDEDED",
"L. c #FFE0E0",
"P. c #F0F0F0",
"I. c #F1F1F1",
"U. c #F2F2F2",
"Y. c #F3F3F3",
"T. c #F4F4F4",
"R. c #F5F5F5",
"E. c #F7F7F7",
"W. c #FFF2F2",
"Q. c #F9F9F9",
"!. c #FCFCFC",
"~. c #FDFDFD",
"^. c #FEFEFE",
"/. c #FFFFFF",
"(. c None",
/* pixels */
"(.(.(.(.(.(.(.(.(.(.(.(.(.(.(.(.(.(.(.(.(.(.(.(.(.(.(.(.(.(.(.(.(.(.(.(.(.(.(.(.(.(.(.(.(.(.(.(.",
"(.(.(.(.(.(.(.(.(.(.(.(.(.(.(.(.(.(.(.(.(.(.(.(.(.(.(.(.(.(.(.(.(.(.(.(.(.(.(.(.(.(.(.(.(.(.(.(.",
"(.(.(.(.(.(.(.(.(.(.(.(.(.(.(.(.(.(.                        (.(.(.(.(.(.(.(.(.(.(.(.(.(.(.(.(.(.",
"(.(.(.(.(.(.(.(.(.(.(.(.(.(.(.(.                                (.(.(.(.(.(.(.(.(.(.(.(.(.(.(.(.",
"(.(.(.(.(.(.(.(.(.(.(.(.(.              Z R R ;.R R R Z               (.(.(.(.(.(.(.(.(.(.(.(.(.",
"(.(.(.(.(.(.(.(.(.(.(.          4 ,.e.e.Y././././././.Y.e.e.,.4           (.(.(.(.(.(.(.(.(.(.(.",
"(.(.(.(.(.(.(.(.(.(.        p L F././././././././././././././.F.L p         (.(.(.(.(.(.(.(.(.(.",
"(.(.(.(.(.(.(.(.(.      r ;.V././././././././././././././././././.V.;.r       (.(.(.(.(.(.(.(.(.",
"(.(.(.(.(.(.(.(.    $ r x././././.P.q.2.J././././././.Q.F.U m.T./././.i.r $     (.(.(.(.(.(.(.(.",
"(.(.(.(.(.(.(.    = 2.J././././.S.b 0 u r x./././././.2.1 i 4 K Y./././.F.2.=     (.(.(.(.(.(.(.",
"(.(.(.(.(.(.    $ 2./././././.V.h &  .$.t r x./././.2.$ h a.S   K T././././.2.$     (.(.(.(.(.(.",
"(.(.(.(.(.    $ 2././././././.7.@ ..} [ 3.6 L Q./.T.s g %._ #.S = N./././././.2.$     (.(.(.(.(.",
"(.(.(.(.(.    L Q./././././.J.0 P @.q : ] 4.& x./.:.5 d.W q k s.l B /./././././.L     (.(.(.(.(.",
"(.(.(.(.    r x././././././.F.= R O.:   ! g.  e./.R < k.k : j =.x h /./././././.x.r     (.(.(.(.",
"(.(.(.(.  = i./././././././.F.1 R +.~ Q ` 0.  e./.R < j./ Q ^ =.x h /././././././.i.=   (.(.(.(.",
"(.(.(.    b Y./././././././.F.= R o.( ( ' 9.  e./.R < h.( ( ( =.x h /././././././.Y.b     (.(.(.",
"(.(.(.    e././././././././.F.; R f.) ( &.w.  e./.R 1 C.X.( { Z.z h /./././././././.e.    (.(.(.",
"(.(.    $ x././././././././.F.; R /.Z.l.W.y.  e./.R = H.L.l.A./.h h /./././././././.x.$     (.(.",
"(.(.    I Q././././././././.F.1 R /./././.e.  e./.R = F././././.h h /./././././././.Q.I     (.(.",
"(.(.    ;./././././././././.F.= R /./././.e.  e./.R 1 F././././.h h /././././././././.;.    (.(.",
"(.(.  p V./././././././././.Q.:.r i././.D.s V F./.V.p K T././.2.6 e./././././././././.V.p   (.(.",
"(.(.  N /././././././././././.n.0 6 8.e.b = 5./././.K   K e.,.O h Y././././././././././.N   (.(.",
"(.(.  N /./././././././././././.i.r     $ 2././././.Y.K       h V./././././././././././.N   (.(.",
"(.    N /././././././././././././.b.e.e.x././././././.Y.e.e.e.D././././././././././././.N   (.(.",
"(.    N /./././././././././././././././././././././././././././././././././././././././.N   (.(.",
"(.    N /./././././././././././././././././././././././././././././././././././././././.N   (.(.",
"(.(.  N /./././././././././././././././././././././././././././././././././././././././.b   (.(.",
"(.(.  N /./././././././././././././././././././././././././././././././././././././././.N   (.(.",
"(.(.  r i././././././././././././././././././././././././././././././././././././././.i.r   (.(.",
"(.(.    R /././././././././././././././././././././././././././././././.Y././././././.R     (.(.",
"(.(.    Z J././././././././././././././././././././././.D.e.e.e.e.e.e.7.D /././././.J.Z     (.(.",
"(.(.      e././././././././././././././.T.:.R R R R R R h               b /././././.i.      (.(.",
"(.(.(.    8././././././.e.h h z h h h h s 4 = 1 = 1 ; ; H e.e.e.e.e.e.e.b./././././.8.    (.(.(.",
"(.(.(.    y J././././.Y.Z h h h h h h h B N.F.F.F.F.F.F.T././././././././././././.J.y     (.(.(.",
"(.(.(.(.  $ 2././././././././././././././././././././././././././././././././././.2.$   (.(.(.(.",
"(.(.(.(.    = 5././././././././././././././././././././././././././././././././.5.=     (.(.(.(.",
"(.(.(.(.(.    V P././././././././././././././././././././././././././././././.Y.V     (.(.(.(.(.",
"(.(.(.(.(.(.    J T./.~././././././././././././././././././././././././././.T.K     (.(.(.(.(.(.",
"(.(.(.(.(.(.      K Q.~./././././././././././././././././././././././././.T.K       (.(.(.(.(.(.",
"(.(.(.(.(.(.(.    O L g.!./././././././././././././././././././././././.x.K       (.(.(.(.(.(.(.",
"(.(.(.(.(.(.(.(.      & 2././././././././././././././././././././././.2.$       (.(.(.(.(.(.(.(.",
"(.(.(.(.(.(.(.(.(.      = N i.Y././././././././././././././././.Y.i.N =       (.(.(.(.(.(.(.(.(.",
"(.(.(.(.(.(.(.(.(.(.(.      = b e.Y././././././././././././.Y.e.b =       (.(.(.(.(.(.(.(.(.(.(.",
"(.(.(.(.(.(.(.(.(.(.(.(.          Z R ;.V././././././.V.;.R Z           (.(.(.(.(.(.(.(.(.(.(.(.",
"(.(.(.(.(.(.(.(.(.(.(.(.(.(.            p N N N N N b p             (.(.(.(.(.(.(.(.(.(.(.(.(.(.",
"(.(.(.(.(.(.(.(.(.(.(.(.(.(.(.(.                                (.(.(.(.(.(.(.(.(.(.(.(.(.(.(.(.",
"(.(.(.(.(.(.(.(.(.(.(.(.(.(.(.(.(.(.(.(.(.(.(.(.(.(.(.(.(.(.(.(.(.(.(.(.(.(.(.(.(.(.(.(.(.(.(.(.",
"(.(.(.(.(.(.(.(.(.(.(.(.(.(.(.(.(.(.(.(.(.(.(.(.(.(.(.(.(.(.(.(.(.(.(.(.(.(.(.(.(.(.(.(.(.(.(.(."
};
